<svg xmlns="http://www.w3.org/2000/svg" width="16" height="16" viewBox="0 0 16 16">
  <rect width="16" height="16" fill="#0a0a0a"/>
  <path fill="#ffffff" d="M8 2C4.687 2 2 4.687 2 8c0 2.651 1.719 4.9 4.104 5.694.3.056.396-.131.396-.289v-1.117c-1.669.363-2.017-.708-2.017-.708-.273-.694-.666-.878-.666-.878-.544-.373.042-.365.042-.365.603.042.92.619.92.619.535.917 1.403.652 1.746.499.054-.388.209-.653.381-.802-1.333-.153-2.734-.667-2.734-2.966 0-.656.235-1.191.618-1.611-.062-.152-.268-.762.059-1.588 0 0 .504-.161 1.65.615.48-.134 1-.201 1.514-.203.51.002 1.024.069 1.503.202 1.146-.776 1.649-.615 1.649-.615.326.827.121 1.437.059 1.588.385.42.618.956.618 1.611 0 2.305-1.404 2.812-2.74 2.961.215.186.412.551.412 1.111v1.646c0 .16.096.347.4.288C12.283 12.897 14 10.65 14 8c0-3.313-2.687-6-6-6z"/>
</svg>
